<svg width="1003" height="962" viewBox="0 0 1003 962" fill="none" xmlns="http://www.w3.org/2000/svg">
<path d="M470.193 65V0.449646H494.017C507.682 0.449646 514.965 6.47315 514.965 17.2615C514.965 25.5326 509.93 29.6681 504.985 31.3763C512.267 33.3542 517.122 39.018 517.122 47.1992C517.122 58.4371 508.941 65 495.905 65H470.193ZM478.554 28.1398H493.298C501.929 28.1398 506.693 24.8134 506.693 17.9807C506.693 11.0582 501.929 7.73179 493.298 7.73179H478.554V28.1398ZM478.554 35.5118V57.7179H495.546C504.176 57.7179 508.851 53.2227 508.851 46.5699C508.851 40.007 504.176 35.5118 495.546 35.5118H478.554Z" fill="white"/>
<path d="M691.802 102.661C691.802 82.9727 704.208 69.3973 721.11 69.3973C738.012 69.3973 750.329 82.9727 750.329 102.661C750.329 122.35 738.012 135.926 721.11 135.926C704.208 135.926 691.802 122.35 691.802 102.661ZM741.788 102.661C741.788 87.3779 733.247 77.0391 721.11 77.0391C708.973 77.0391 700.432 87.3779 700.432 102.661C700.432 117.945 708.973 128.284 721.11 128.284C733.247 128.284 741.788 117.945 741.788 102.661Z" fill="white"/>
<path d="M942.474 439.143V471.777L972.502 439.143H982.84L956.679 467.282L984.099 503.693H973.94L950.925 473.486L942.474 482.566V503.693H933.843V439.143H942.474Z" fill="white"/>
<path d="M888.686 674.384H898.215L923.118 738.934H914.398L907.835 721.942H878.886L872.413 738.934H863.782L888.686 674.384ZM893.271 684.093L881.763 714.391H904.958L893.271 684.093Z" fill="white"/>
<path d="M723.84 904.239H716.917L697.229 851.106V904.239H689.137V839.688H700.915L720.514 892.731L740.202 839.688H751.62V904.239H743.619V851.106L723.84 904.239Z" fill="white"/>
<path d="M470.193 896.909H512.357V904.461H478.734V924.329H507.233V931.881H478.734V953.908H512.357V961.459H470.193V896.909Z" fill="white"/>
<path d="M238.366 839.688H280.53V847.24H246.907V867.109H275.406V874.66H246.907V896.687H280.53V904.239H238.366V839.688Z" fill="white"/>
<path d="M117.687 681.936H95.8404V738.934H87.2097V681.936H65.3633V674.384H117.687V681.936Z" fill="white"/>
<path d="M8.73298 439.143V503.693H0.102295V439.143H8.73298Z" fill="white"/>
<path d="M275.62 128.579V118.959C273.013 124.893 266.091 129.568 256.831 129.568C240.378 129.568 228.152 116.082 228.152 96.4834C228.152 76.7947 240.468 63.0395 257.37 63.0395C269.777 63.0395 278.587 69.7822 282.453 80.9302L274.182 83.6273C271.844 75.4461 265.911 70.6813 257.46 70.6813C245.233 70.6813 236.782 81.11 236.782 96.3935C236.782 111.587 245.233 122.106 257.55 122.106C267.979 122.106 274.991 114.104 275.171 102.597H256.651V95.045H283.532V128.579H275.62Z" fill="white"/>
<path d="M927.87 200.668L908.891 211.487L937.663 260.691L930.165 264.965L901.392 215.761L882.413 226.58L878.601 220.061L924.058 194.149L927.87 200.668Z" fill="white"/>
<path d="M837.773 243.334L874.405 222.453L878.217 228.972L849.006 245.623L859.035 262.774L883.794 248.661L887.607 255.18L862.847 269.294L873.966 288.307L903.177 271.656L906.989 278.175L870.358 299.056L837.773 243.334Z" fill="white"/>
<path d="M807.579 297.693C815.294 310.887 827.855 315.626 838.243 309.705C845.507 305.564 848.289 298.391 846.19 290.171L854.659 288.448C857.006 299.941 852.801 310.202 842.101 316.302C827.573 324.583 810.02 318.963 800.081 301.967C790.142 284.971 793.99 267.153 808.517 258.872C819.218 252.772 830.321 254.308 839.229 262.061L833.483 268.441C827.322 262.536 819.639 261.328 812.375 265.469C801.987 271.39 799.864 284.5 807.579 297.693Z" fill="white"/>
<path d="M742.16 296.697C752.392 290.865 763.541 292.478 768.76 301.402C772.027 306.99 771.366 313.162 767.014 318.54C774.911 316.729 782.905 319.002 787.034 326.064C792.753 335.843 787.726 347.193 775.698 354.049C763.748 360.861 751.279 359.484 745.561 349.705C741.431 342.643 743.434 334.671 748.893 328.869C742.077 329.857 736.333 327.337 733.066 321.749C727.847 312.824 732.007 302.485 742.16 296.697ZM756.229 320.756C762.868 316.971 765.232 310.864 762.01 305.353C758.833 299.921 752.248 298.811 745.609 302.595C739.048 306.335 736.651 312.565 739.828 317.998C743.05 323.508 749.668 324.495 756.229 320.756ZM759.814 326.887C751.925 331.383 749 338.846 752.63 345.054C756.352 351.418 764.36 352.648 772.249 348.151C780.138 343.654 783.22 336.103 779.498 329.739C775.868 323.53 767.703 322.39 759.814 326.887Z" fill="white"/>
<path d="M705.701 358.353L698.147 361.107L683.822 331.09L714.361 313.682L718.173 320.201L693.414 334.314L701.778 352.001C702.792 348.215 705.485 344.093 710.405 341.288C721.34 335.055 733.246 339.03 739.418 349.585C745.59 360.14 742.134 373.285 730.887 379.696C720.343 385.707 709.239 384.172 701.114 374.73L707.438 369.159C712.785 375.632 720.305 377.45 727.256 373.488C734.364 369.436 736.654 360.887 732.479 353.747C728.349 346.685 720.194 343.78 713.086 347.831C708.4 350.503 706.032 354.646 705.701 358.353Z" fill="white"/>
<path d="M663.522 379.292L658.167 370.134L667.071 365.059L672.426 374.216L663.522 379.292ZM680.041 407.541L674.686 398.383L683.59 393.308L688.945 402.466L680.041 407.541Z" fill="white"/>
<path d="M610.773 430.987L615.445 424.909C620.139 429.373 626.157 431.116 632.64 427.421C641.309 422.479 643.002 410.236 635.377 397.198L634.924 396.421C635.205 402.78 632.007 409.777 624.899 413.828C614.512 419.75 601.903 416.175 595.776 405.698C589.423 394.833 593.002 381.721 604.015 375.443C618.386 367.251 632.312 376.284 641.343 391.727C651.69 409.422 649.002 426.373 636.036 433.763C626.351 439.284 617.687 437.29 610.773 430.987ZM602.423 401.392C606.643 408.61 615.3 411.125 622.408 407.074C629.437 403.067 631.793 394.274 627.573 387.056C623.352 379.839 614.708 377.523 607.6 381.574C600.493 385.626 598.202 394.175 602.423 401.392Z" fill="white"/>
<path d="M570.749 395.13L576.373 391.924L609.139 447.957L601.641 452.231L577.679 411.254L564.167 418.956L560.945 413.446L566.732 409.63C573.099 405.38 573.969 401.883 570.749 395.13Z" fill="white"/>
<path d="M449.805 393.735L430.826 382.916L402.053 432.12L394.555 427.846L423.327 378.642L404.348 367.824L408.16 361.305L453.617 387.216L449.805 393.735Z" fill="white"/>
<path d="M337.666 380.103L346.247 378.786C345.859 387.464 349.916 394.95 357.18 399.091C364.444 403.231 372.155 402.867 375.876 396.503C379.824 389.751 374.022 384.892 366.689 378.021C359.088 370.895 351.748 363.502 357.874 353.025C363.592 343.247 375.827 341.736 386.45 347.791C396.213 353.356 400.519 362.019 400.202 370.22L391.868 371.471C392.109 364.469 389.79 358.284 382.527 354.143C375.731 350.27 368.632 351.19 365.501 356.545C362.052 362.443 366.559 366.668 373.358 373.027C381.382 380.498 390.479 388.271 383.581 400.067C377.5 410.467 364.348 411.765 353.257 405.443C343.572 399.922 337.091 389.813 337.666 380.103Z" fill="white"/>
<path d="M324.104 313.39L360.735 334.271L356.923 340.79L327.711 324.139L317.682 341.29L342.441 355.404L338.629 361.923L313.87 347.809L302.751 366.823L331.962 383.474L328.15 389.993L291.519 369.113L324.104 313.39Z" fill="white"/>
<path d="M280.193 287.222C290.424 293.054 294.584 303.393 289.365 312.318C286.098 317.906 280.354 320.426 273.46 319.394C278.997 325.241 281 333.212 276.87 340.274C271.152 350.053 258.683 351.43 246.655 344.574C234.705 337.762 229.678 326.412 235.397 316.633C239.526 309.571 247.52 307.298 255.339 309.065C251.065 303.731 250.404 297.559 253.671 291.972C258.89 283.047 270.039 281.434 280.193 287.222ZM266.124 311.28C272.763 315.065 279.303 314.032 282.525 308.522C285.701 303.09 283.382 296.904 276.744 293.12C270.183 289.38 263.52 290.446 260.343 295.878C257.121 301.388 259.563 307.54 266.124 311.28ZM262.539 317.411C254.65 312.915 246.641 314.144 243.011 320.353C239.289 326.717 242.215 334.179 250.104 338.676C257.992 343.172 266.157 342.032 269.879 335.668C273.509 329.46 270.427 321.908 262.539 317.411Z" fill="white"/>
<path d="M207.881 286.876L201.689 281.794L220.856 254.537L251.395 271.945L247.583 278.464L222.824 264.351L211.492 280.345C215.32 279.32 220.281 279.561 225.202 282.366C236.137 288.599 238.603 300.766 232.431 311.321C226.258 321.876 213 325.493 201.753 319.082C191.209 313.072 187.003 302.811 191.223 291.143L199.271 293.764C196.267 301.572 198.432 308.911 205.383 312.874C212.491 316.925 221.135 314.609 225.31 307.469C229.44 300.407 227.911 291.981 220.803 287.93C216.117 285.258 211.299 285.306 207.881 286.876Z" fill="white"/>
<path d="M168.425 261.281L173.781 252.123L182.684 257.199L177.329 266.356L168.425 261.281ZM151.906 289.53L157.261 280.372L166.165 285.448L160.81 294.606L151.906 289.53Z" fill="white"/>
<path d="M121.016 271.922L114.064 267.959L122.551 253.447L95.4484 237.998L98.8521 232.177L144.15 210.812L153.678 216.244L133.211 251.245L144.067 257.434L140.437 263.642L129.502 257.409L121.016 271.922ZM106.733 236.152L126.103 247.194L142.396 219.333L106.733 236.152Z" fill="white"/>
<path d="M107.308 189.398L112.931 192.603L80.165 248.636L72.6669 244.362L96.629 203.385L83.1169 195.683L86.3391 190.173L92.5801 193.213C99.4913 196.532 102.994 195.528 107.308 189.398Z" fill="white"/>
</svg>
