<svg width="1052" height="1039" viewBox="0 0 1052 1039" fill="none" xmlns="http://www.w3.org/2000/svg">
<path d="M502.555 69V0.0720215H527.995C542.587 0.0720215 550.363 6.50402 550.363 18.024C550.363 26.856 544.987 31.272 539.707 33.096C547.483 35.208 552.667 41.256 552.667 49.992C552.667 61.992 543.931 69 530.011 69H502.555ZM511.483 29.64H527.227C536.443 29.64 541.531 26.088 541.531 18.792C541.531 11.4 536.443 7.84803 527.227 7.84803H511.483V29.64ZM511.483 37.512V61.224H529.627C538.843 61.224 543.835 56.424 543.835 49.32C543.835 42.312 538.843 37.512 529.627 37.512H511.483Z" fill="white"/>
<path d="M739.193 110.175C739.193 89.1514 752.441 74.6554 770.489 74.6554C788.537 74.6554 801.689 89.1514 801.689 110.175C801.689 131.199 788.537 145.695 770.489 145.695C752.441 145.695 739.193 131.199 739.193 110.175ZM792.569 110.175C792.569 93.8554 783.449 82.8154 770.489 82.8154C757.529 82.8154 748.409 93.8554 748.409 110.175C748.409 126.495 757.529 137.535 770.489 137.535C783.449 137.535 792.569 126.495 792.569 110.175Z" fill="white"/>
<path d="M917.988 233.853C917.988 212.77 931.273 198.233 949.371 198.233C967.47 198.233 980.658 212.77 980.658 233.853C980.658 254.935 967.47 269.472 949.371 269.472C931.273 269.472 917.988 254.935 917.988 233.853ZM971.513 233.853C971.513 217.487 962.367 206.416 949.371 206.416C936.375 206.416 927.23 217.487 927.23 233.853C927.23 250.218 936.375 261.289 949.371 261.289C962.367 261.289 971.513 250.218 971.513 233.853Z" fill="white"/>
<path d="M1006.86 474.537V509.385L1038.93 474.537H1049.97L1022.03 504.585L1051.31 543.465H1040.46L1015.89 511.209L1006.86 520.905V543.465H997.648V474.537H1006.86Z" fill="white"/>
<path d="M949.429 728.96H959.605L986.197 797.888H976.885L969.877 779.744H938.965L932.053 797.888H922.837L949.429 728.96ZM954.325 739.328L942.037 771.68H966.805L954.325 739.328Z" fill="white"/>
<path d="M773.404 976.672H766.012L744.988 919.936V976.672H736.348V907.744H748.924L769.852 964.384L790.876 907.744H803.068V976.672H794.524V919.936L773.404 976.672Z" fill="white"/>
<path d="M502.555 969.631H547.579V977.695H511.675V998.911H542.107V1006.97H511.675V1030.49H547.579V1038.56H502.555V969.631Z" fill="white"/>
<path d="M255.006 907.744H300.03V915.808H264.126V937.024H294.558V945.088H264.126V968.608H300.03V976.672H255.006V907.744Z" fill="white"/>
<path d="M126.143 737.024H102.815V797.888H93.5986V737.024H70.2706V728.96H126.143V737.024Z" fill="white"/>
<path d="M9.79986 474.537V543.465H0.583862V474.537H9.79986Z" fill="white"/>
<path d="M123.953 199.292V268.413H115.963L78.2256 212.77V268.413H69.3689V199.292H79.092L115 252.721V199.292H123.953Z" fill="white"/>
<path d="M294.787 137.763V127.491C292.003 133.827 284.611 138.819 274.723 138.819C257.155 138.819 244.099 124.419 244.099 103.491C244.099 82.4672 257.251 67.7792 275.299 67.7792C288.547 67.7792 297.955 74.9792 302.083 86.8832L293.251 89.7632C290.755 81.0272 284.419 75.9392 275.395 75.9392C262.339 75.9392 253.315 87.0752 253.315 103.395C253.315 119.619 262.339 130.851 275.491 130.851C286.627 130.851 294.115 122.307 294.307 110.019H274.531V101.955H303.235V137.763H294.787Z" fill="white"/>
</svg>
